<svg id="Layer_1" data-name="Layer 1" xmlns="http://www.w3.org/2000/svg" viewBox="0 0 290 73.79">
    <defs>
        <style>
            .cls-1 {
            fill: #fff;
            }
        </style>
    </defs>
    <g>
        <path class="cls-1" d="m.11.74c1.82,1.51,3.53,2.94,5.25,4.37,8.26,6.88,16.51,13.76,24.76,20.65,2.55,2.13,5.06,4.29,7.61,6.41,2.7,2.25,5.44,4.47,8.15,6.72,2.08,1.73,4.13,3.5,6.21,5.24,2.06,1.71,4.14,3.39,6.2,5.11,1.19.99,2.37,2.01,3.53,3.05.19.17.34.49.34.74.02,6.72.01,13.45.01,20.17,0,.1-.02.19-.05.44-1.11-.91-2.11-1.74-3.12-2.57-1.8-1.49-3.61-2.98-5.41-4.47-1.4-1.16-2.78-2.34-4.17-3.5-1.82-1.51-3.65-3.01-5.47-4.52-1.74-1.45-3.46-2.92-5.19-4.37-1.78-1.48-3.57-2.94-5.35-4.42-1.39-1.16-2.77-2.34-4.17-3.5-1.82-1.51-3.65-3.01-5.47-4.52-1.43-1.2-2.85-2.42-4.28-3.62-2.12-1.78-4.23-3.57-6.35-5.34-2.36-1.97-4.72-3.92-7.08-5.89-1.86-1.55-3.72-3.1-5.56-4.68-.23-.19-.44-.55-.44-.84C.04,14.64.05,7.89.05,1.13c0-.08.02-.15.05-.39Z"/>
        <path class="cls-1" d="m52.06,23.92c-2.14-1.82-4.22-3.6-6.32-5.37-1.08-.9-2.2-1.75-3.29-2.65-.16-.13-.29-.39-.29-.6-.02-3.73-.01-7.46-.01-11.24h19.97c.01.23.04.46.04.69,0,3.36.02,6.72-.02,10.08,0,.36-.2.84-.47,1.07-3.16,2.68-6.36,5.31-9.61,8.02Z"/>
        <path class="cls-1" d="m20.06,70.3H.05v-.9c0-3.09.09-6.19-.05-9.27-.06-1.28.56-1.9,1.39-2.56,1.13-.91,2.25-1.85,3.37-2.77,1.17-.96,2.34-1.91,3.5-2.88.56-.47,1.1-.96,1.71-1.49,1.34,1.11,2.68,2.23,4.03,3.34,1.79,1.49,3.58,2.99,5.39,4.46.46.38.7.75.7,1.4-.04,3.28-.02,6.56-.02,9.84v.83Z"/>
    </g>
    <path class="cls-1" d="m158.19,32.62h25.06v14.12c0,5.44-1.09,10.18-3.28,14.25-2.19,4.06-5.25,7.21-9.17,9.45-3.93,2.24-8.55,3.36-13.85,3.36s-10-1.05-14-3.16c-3.99-2.1-7.09-5.07-9.3-8.9-2.2-3.83-3.31-8.29-3.31-13.4v-21.33c0-5.44,1.09-10.18,3.28-14.22,2.19-4.04,5.25-7.19,9.17-9.42,3.93-2.24,8.54-3.36,13.85-3.36,4.38,0,8.36.9,11.96,2.68,3.6,1.79,6.62,4.29,9.07,7.51,2.45,3.22,4.11,6.98,4.97,11.29h-14.72c-.73-2.35-2.18-4.17-4.35-5.44-2.17-1.28-4.48-1.91-6.94-1.91-3.68,0-6.63,1.18-8.85,3.53-2.22,2.35-3.33,5.47-3.33,9.35v21.33c0,3.41,1.14,6.16,3.43,8.23,2.29,2.07,5.3,3.11,9.05,3.11s6.63-1.12,8.85-3.36c2.22-2.24,3.33-5.36,3.33-9.37v-1.19h-10.94v-13.13Z"/>
    <polygon class="cls-1" points="187.69 73.04 215.33 .75 223.98 .75 251.63 73.04 236.96 73.04 219.66 23.67 202.36 73.04 187.69 73.04"/>
    <g>
        <rect class="cls-1" x="73.3" y=".75" width="13.62" height="72.3"/>
        <rect class="cls-1" x="78.23" y=".75" width="43.51" height="13.13"/>
        <rect class="cls-1" x="78.23" y="59.91" width="43.51" height="13.13"/>
        <path class="cls-1" d="m111.86,37.26c-1.17,1.37-2.32,2.71-3.45,4.06-.58.69-1.13,1.41-1.7,2.11-.08.1-.25.19-.38.19-2.4.01-4.79,0-7.22,0,0-4.29,0-8.54,0-12.83.15,0,.3-.03.45-.03,2.16,0,4.32-.01,6.47.01.23,0,.54.13.68.3,1.72,2.03,3.41,4.08,5.15,6.18Z"/>
    </g>
    <g>
        <path class="cls-1" d="m256.57,43.95v-13.13h9.32c2.12,0,3.82-.78,5.1-2.34,1.28-1.56,1.93-3.61,1.96-6.17,0-2.55-.64-4.61-1.91-6.17-1.28-1.56-2.99-2.34-5.15-2.34h-25.16V.7h26.25c4.01,0,7.52.89,10.52,2.68,3,1.79,5.33,4.31,6.99,7.56,1.66,3.25,2.49,7.04,2.49,11.39s-.84,8.14-2.51,11.39c-1.67,3.25-4,5.77-6.99,7.56-2.98,1.79-6.48,2.68-10.49,2.68h-10.41Z"/>
        <polygon class="cls-1" points="270.51 40.14 256.57 42.09 256.57 43.47 273.49 73.76 290 73.76 270.51 40.14"/>
    </g>
</svg>
